<?xml version="1.0" standalone="no"?>
<!DOCTYPE svg PUBLIC "-//W3C//DTD SVG 20010904//EN"
 "http://www.w3.org/TR/2001/REC-SVG-20010904/DTD/svg10.dtd">
<svg version="1.0" xmlns="http://www.w3.org/2000/svg"
 width="1000.000000pt" height="1000.000000pt" viewBox="0 0 1000.000000 1000.000000"
 preserveAspectRatio="xMidYMid meet">
<metadata>
Created by potrace 1.11, written by Peter Selinger 2001-2013
</metadata>
<g transform="translate(0.000000,1000.000000) scale(0.100000,-0.100000)"
fill="#000000" stroke="none">
<path d="M0 5000 l0 -5000 5000 0 5000 0 0 5000 0 5000 -5000 0 -5000 0 0
-5000z m5176 3753 c-26 -125 -416 -2113 -416 -2122 0 -8 184 -11 658 -11 l659
0 96 488 c53 268 149 754 213 1080 l117 592 393 0 394 0 -7 -32 c-4 -18 -100
-503 -213 -1078 l-206 -1045 518 -3 518 -2 0 -370 0 -370 -590 0 c-324 0 -590
-3 -590 -6 0 -7 -337 -1735 -345 -1771 l-5 -23 570 0 570 0 0 -365 0 -365
-640 0 c-507 0 -642 -3 -645 -13 -3 -7 -97 -484 -210 -1061 -112 -577 -206
-1051 -208 -1053 -2 -2 -179 -2 -394 -1 l-389 3 203 1040 c111 572 205 1050
208 1063 l5 22 -665 0 c-366 0 -665 -3 -665 -6 0 -3 -92 -478 -205 -1056 -113
-578 -205 -1054 -205 -1059 0 -5 -172 -9 -395 -9 l-395 0 5 23 c17 74 405
2079 405 2091 0 14 -63 16 -605 16 l-605 0 0 365 0 365 679 0 c639 0 680 1
685 18 7 23 346 1760 346 1772 0 6 -242 10 -660 10 l-660 0 0 370 0 370 734 0
734 0 5 23 c3 12 99 495 212 1072 114 578 209 1053 212 1058 2 4 180 7 394 7
l391 0 -6 -27z"/>
<path d="M4605 5858 c-8 -38 -345 -1766 -345 -1772 0 -3 298 -6 663 -6 l662 0
176 900 175 900 -663 0 -663 0 -5 -22z"/>
</g>
</svg>
